<?xml version="1.0" standalone="no"?>
<!DOCTYPE svg PUBLIC "-//W3C//DTD SVG 20010904//EN"
 "http://www.w3.org/TR/2001/REC-SVG-20010904/DTD/svg10.dtd">
<svg version="1.0" xmlns="http://www.w3.org/2000/svg"
 width="1536.000000pt" height="1064.000000pt" viewBox="0 0 1536.000000 1064.000000"
 preserveAspectRatio="xMidYMid meet">
<metadata>
Created by potrace 1.16, written by Peter Selinger 2001-2019
</metadata>
<g transform="translate(0.000000,1064.000000) scale(0.100000,-0.100000)"
fill="#000000" stroke="none">
<path d="M2655 10620 c-27 -11 -69 -19 -92 -20 -25 0 -61 -10 -89 -25 -48 -26
-98 -33 -109 -15 -10 16 -35 12 -62 -10 -14 -11 -33 -20 -42 -20 -10 0 -71
-18 -137 -40 -164 -54 -189 -64 -206 -78 -9 -7 -35 -18 -59 -25 -24 -8 -66
-28 -93 -45 -28 -18 -55 -32 -61 -32 -6 0 -32 -24 -58 -54 -26 -30 -74 -76
-107 -102 -33 -25 -77 -70 -99 -98 -21 -28 -72 -88 -113 -133 -40 -44 -84 -94
-97 -110 -14 -15 -44 -50 -68 -76 -24 -26 -43 -57 -43 -68 0 -29 -76 -158
-116 -196 -37 -35 -41 -56 -22 -128 11 -41 10 -46 -12 -69 l-23 -26 26 -38
c22 -31 27 -49 27 -99 0 -55 -3 -65 -36 -104 -19 -23 -41 -54 -49 -69 -8 -15
-20 -32 -29 -39 -8 -7 -24 -41 -35 -76 -11 -35 -45 -112 -75 -172 -30 -59 -59
-120 -65 -135 -6 -16 -25 -37 -42 -47 -17 -10 -40 -34 -51 -52 -37 -61 -162
-189 -184 -189 -15 0 -24 -8 -28 -25 -3 -13 -19 -31 -34 -39 -15 -8 -79 -67
-141 -131 -100 -104 -118 -128 -156 -209 -53 -115 -75 -209 -75 -325 0 -128
34 -241 72 -241 5 0 37 22 71 48 34 26 110 80 168 120 117 79 204 159 291 267
131 163 361 366 529 466 99 59 127 72 185 80 38 6 91 14 119 19 95 16 136 -33
109 -132 -10 -38 -14 -116 -14 -277 0 -216 1 -228 29 -335 16 -61 35 -137 41
-170 7 -32 25 -76 41 -100 16 -22 47 -90 69 -150 53 -141 49 -133 195 -351
137 -205 199 -287 270 -355 26 -25 51 -55 56 -67 5 -14 17 -23 30 -23 27 0
169 -136 254 -245 81 -103 224 -242 296 -288 51 -32 149 -119 263 -233 23 -22
67 -58 99 -78 31 -20 57 -41 57 -45 0 -5 25 -11 56 -14 36 -4 66 -14 87 -30
18 -13 59 -39 92 -57 98 -55 267 -170 317 -217 35 -32 55 -43 79 -43 20 0 45
-11 71 -32 34 -27 131 -68 160 -68 5 0 26 -12 48 -26 55 -36 183 -93 252 -111
38 -10 59 -22 63 -33 4 -13 20 -20 58 -25 29 -4 77 -15 107 -25 30 -10 80 -21
110 -25 73 -9 227 -41 287 -59 27 -7 75 -21 107 -31 33 -9 89 -37 125 -61 36
-24 110 -59 164 -79 145 -52 186 -77 290 -174 71 -66 123 -204 137 -360 9 -98
13 -113 67 -225 l58 -121 0 -290 c0 -238 -3 -303 -17 -365 -10 -41 -22 -138
-28 -215 -13 -162 -35 -283 -85 -451 -20 -65 -45 -149 -55 -185 -11 -37 -28
-76 -37 -87 -11 -13 -53 -31 -103 -46 -47 -14 -125 -38 -175 -54 -49 -17 -128
-35 -175 -42 -47 -6 -107 -16 -133 -21 -26 -5 -70 -9 -98 -9 -65 0 -189 -28
-212 -48 -22 -20 -22 -39 4 -96 12 -27 19 -62 17 -83 -3 -36 -5 -38 -63 -56
-33 -10 -94 -23 -135 -28 -154 -20 -250 -80 -171 -107 15 -6 41 -28 57 -51 33
-46 37 -48 204 -61 63 -5 156 -14 205 -19 50 -6 139 -15 199 -21 186 -17 387
-87 394 -137 4 -24 -45 -183 -78 -256 -23 -52 -67 -106 -110 -137 -27 -19 -35
-20 -122 -9 -51 6 -149 15 -218 19 -150 10 -297 26 -365 41 -27 6 -103 13
-168 15 -142 4 -177 -7 -177 -58 0 -56 -94 -124 -225 -162 -33 -10 -78 -24
-100 -31 -24 -8 -109 -16 -215 -20 -199 -7 -291 -20 -322 -45 -21 -17 -21 -18
-5 -44 10 -14 24 -26 33 -26 8 0 22 -16 29 -35 8 -19 23 -39 33 -44 10 -5 76
-19 146 -30 165 -27 274 -69 339 -132 26 -25 47 -54 47 -65 0 -10 15 -37 34
-59 l33 -39 139 -1 c101 0 154 5 194 17 30 9 107 21 170 27 66 7 158 24 215
40 55 16 150 37 210 46 61 9 124 23 140 31 49 22 283 105 380 134 87 25 91 28
143 89 l54 63 -7 74 c-10 98 -3 122 40 140 20 8 41 27 51 46 15 28 15 42 4
120 -12 81 -9 200 6 254 4 16 30 30 107 58 136 49 186 75 203 109 8 15 23 27
34 27 10 0 53 34 94 75 71 70 77 80 100 158 14 45 37 136 51 202 14 67 36 148
49 180 37 95 90 198 103 202 6 2 30 -12 52 -32 44 -40 71 -41 71 -2 0 43 -38
174 -68 233 -24 48 -30 76 -35 149 -8 149 32 325 188 830 24 77 47 151 51 165
3 14 28 68 55 121 49 98 72 172 83 267 4 29 16 71 28 93 18 34 20 52 16 117
-3 42 -3 91 -1 108 5 31 6 32 76 39 80 8 118 21 179 63 72 49 193 110 234 118
22 3 47 11 56 16 10 4 73 20 140 33 119 25 182 41 278 70 25 8 79 17 120 21
41 3 109 15 150 26 41 10 116 23 165 29 50 5 134 16 188 25 55 9 118 14 142
11 33 -5 60 0 111 19 64 24 70 24 207 16 129 -9 141 -11 157 -33 16 -20 33
-24 151 -37 74 -8 169 -14 212 -13 45 2 84 -2 92 -9 7 -6 62 -12 126 -13 63
-2 119 -6 125 -9 5 -4 23 2 40 13 17 11 46 19 72 19 30 0 47 6 59 20 11 12 30
20 49 20 17 0 60 14 95 32 35 18 76 31 91 30 18 -2 48 11 85 37 80 54 137 81
170 81 44 0 101 19 188 62 73 36 92 41 220 54 108 12 146 20 165 35 28 22 36
26 136 68 82 35 182 61 236 61 20 0 40 5 43 10 3 6 32 10 64 10 32 0 83 5 115
11 53 11 59 10 86 -10 26 -19 42 -21 167 -21 76 -1 158 -5 183 -11 25 -5 77
-14 115 -19 39 -5 158 -30 265 -54 107 -25 245 -54 305 -65 61 -12 148 -30
195 -41 49 -12 154 -24 248 -30 90 -5 167 -12 170 -14 4 -2 67 -12 140 -21
123 -15 140 -16 215 -1 45 8 98 17 117 18 28 2 36 8 38 27 3 18 -9 35 -47 71
-28 26 -51 53 -51 58 0 15 57 57 103 76 47 19 48 40 2 123 -41 75 -42 87 -13
107 40 29 110 19 332 -45 116 -34 234 -68 261 -75 68 -18 236 -77 280 -98 19
-9 63 -23 98 -30 34 -7 105 -28 158 -45 109 -36 184 -45 184 -21 0 18 -334
187 -385 195 -19 3 -71 19 -115 34 -44 16 -145 47 -225 70 -210 60 -381 117
-490 163 -191 81 -175 91 178 113 310 20 420 31 438 46 24 19 15 43 -26 71
-67 47 -48 60 134 93 199 36 203 79 17 174 -115 59 -139 66 -303 86 -70 8
-137 19 -150 24 -13 4 -45 11 -73 15 -27 4 -72 14 -99 22 -27 8 -72 14 -100
14 -28 1 -69 7 -91 15 -22 8 -57 15 -78 15 -45 0 -159 24 -239 51 -32 10 -70
19 -86 19 -16 0 -49 7 -73 15 -24 9 -74 20 -112 25 -38 6 -108 21 -155 35 -48
13 -134 29 -192 36 -58 6 -132 19 -165 29 -33 10 -97 21 -142 25 -45 3 -106
15 -135 25 -29 10 -80 21 -113 25 -33 4 -75 11 -94 17 -18 6 -57 12 -85 13
-28 1 -78 14 -111 28 -33 14 -90 31 -126 36 -37 6 -91 22 -121 36 -31 14 -91
30 -137 35 -45 6 -93 15 -107 20 -14 6 -80 24 -146 41 -66 16 -137 39 -158 49
-29 15 -49 18 -92 13 -47 -5 -61 -2 -99 20 -24 14 -107 48 -184 76 -237 84
-309 112 -340 131 -16 10 -57 28 -90 41 -105 38 -477 240 -525 285 -27 25 -59
44 -80 48 -23 4 -64 31 -118 76 -45 38 -93 72 -105 76 -12 4 -44 21 -72 39
-27 18 -81 50 -120 71 -38 21 -88 55 -110 75 -22 20 -61 46 -86 57 -25 12 -52
28 -59 37 -7 8 -25 15 -41 15 -23 0 -31 7 -43 35 -8 19 -22 35 -30 35 -18 0
-76 33 -134 77 -24 18 -54 33 -66 33 -12 0 -31 7 -42 15 -10 8 -26 15 -35 15
-9 0 -43 19 -75 43 -102 74 -271 153 -449 211 -38 13 -88 35 -109 50 -22 14
-51 29 -65 32 -51 12 -206 75 -241 98 -40 29 -236 96 -276 96 -33 0 -145 52
-194 91 -20 15 -54 35 -75 45 -22 9 -62 28 -88 40 -27 13 -64 24 -83 24 -39 0
-91 12 -225 52 -53 15 -103 28 -112 28 -22 0 -229 67 -298 96 -31 13 -67 24
-80 24 -23 0 -31 2 -152 39 -38 12 -101 26 -140 31 -40 6 -117 18 -172 27 -55
9 -140 17 -190 18 -49 1 -106 5 -125 9 -39 7 -326 39 -546 61 -77 7 -164 20
-194 29 -29 9 -67 16 -83 16 -17 0 -36 8 -46 21 -14 18 -39 24 -152 39 -74 10
-172 26 -219 35 -47 9 -125 22 -175 29 -75 10 -103 20 -169 57 -57 32 -83 53
-96 79 -10 19 -35 54 -55 78 -35 40 -40 43 -74 37 -47 -8 -80 17 -113 84 -14
26 -34 61 -45 77 -12 16 -28 56 -37 89 -19 72 -38 100 -103 145 -82 57 -255
231 -292 293 -26 45 -39 57 -58 57 -16 0 -39 16 -69 47 -24 27 -44 51 -44 55
0 21 -43 48 -75 48 -30 0 -37 5 -45 28 -17 46 -24 53 -64 67 -21 8 -58 32 -81
55 -43 42 -87 59 -155 60 -21 0 -51 10 -73 26 -50 34 -91 37 -152 14z m3929
-6589 c23 -25 36 -230 25 -391 -6 -96 -17 -146 -63 -305 -31 -104 -81 -291
-112 -415 -69 -280 -101 -384 -124 -412 l-18 -23 -13 27 c-10 23 -9 34 5 65
51 114 59 266 25 460 -44 254 -49 292 -58 423 l-9 135 28 50 c20 36 29 69 32
120 3 39 14 90 26 115 11 25 26 60 33 79 7 18 23 47 37 62 22 27 29 29 96 29
59 0 76 -4 90 -19z"/>
</g>
</svg>
