<?xml version="1.0" standalone="no"?>
<!DOCTYPE svg PUBLIC "-//W3C//DTD SVG 20010904//EN"
 "http://www.w3.org/TR/2001/REC-SVG-20010904/DTD/svg10.dtd">
<svg version="1.0" xmlns="http://www.w3.org/2000/svg"
 width="1536.000000pt" height="473.000000pt" viewBox="0 0 1536.000000 473.000000"
 preserveAspectRatio="xMidYMid meet">
<metadata>
Created by potrace 1.16, written by Peter Selinger 2001-2019
</metadata>
<g transform="translate(0.000000,473.000000) scale(0.100000,-0.100000)"
fill="#000000" stroke="none">
<path d="M6280 4711 c-5 -11 -10 -35 -10 -54 0 -21 -11 -50 -27 -74 -16 -23
-150 -168 -299 -324 -149 -156 -324 -342 -388 -414 -169 -187 -220 -230 -296
-248 -14 -3 -135 -11 -270 -17 -490 -21 -983 -58 -1010 -75 -8 -5 -223 -32
-320 -40 -164 -14 -340 -36 -435 -55 -55 -11 -187 -33 -293 -50 -178 -27 -393
-77 -652 -152 -272 -78 -1061 -347 -1313 -447 -266 -106 -469 -172 -570 -185
-63 -9 -104 -19 -116 -30 -24 -22 -38 -78 -47 -185 -4 -46 -12 -84 -18 -86 -6
-1 -47 -7 -91 -13 -97 -13 -125 -36 -125 -106 0 -94 49 -173 210 -340 210
-217 411 -383 651 -538 336 -218 483 -262 1099 -327 157 -17 355 -42 440 -56
478 -79 1443 -207 1805 -240 236 -21 540 -34 1195 -50 322 -8 610 -20 639 -26
77 -15 112 -35 237 -135 117 -93 132 -104 269 -184 50 -29 113 -70 140 -90 64
-48 193 -113 292 -146 91 -31 162 -29 195 4 38 38 12 80 -177 287 -63 68 -113
110 -204 170 -195 128 -192 131 179 160 313 25 864 85 1015 111 50 9 117 20
150 24 33 5 87 18 121 29 33 10 112 27 175 36 63 9 186 34 274 55 88 21 201
46 250 55 50 9 155 32 235 51 80 19 217 50 305 70 88 19 202 46 252 60 85 22
95 23 121 10 16 -8 91 -72 168 -142 155 -142 309 -268 398 -326 78 -50 135
-53 181 -8 20 20 46 33 71 36 48 7 174 53 193 70 8 7 24 32 36 56 25 51 70 84
125 93 26 4 69 28 124 68 46 34 111 77 143 95 32 18 82 54 111 80 l54 47 -42
60 c-24 33 -64 83 -91 112 -27 28 -49 56 -49 62 0 16 104 50 203 66 166 27
460 40 635 27 184 -14 267 -34 394 -98 125 -63 494 -219 603 -256 50 -17 124
-44 165 -60 235 -94 983 -342 1130 -376 36 -8 121 -27 190 -43 194 -45 453
-96 583 -115 107 -16 119 -16 133 -2 24 24 10 66 -51 159 -48 72 -62 100 -78
151 -3 9 -30 32 -59 51 -76 51 -173 141 -210 196 -37 54 -42 58 -88 71 -19 5
-51 23 -70 39 -33 27 -35 32 -33 81 1 32 -4 64 -13 83 -26 49 -215 235 -246
241 -16 4 -39 8 -52 11 -37 8 -67 37 -75 74 -3 19 -13 37 -21 41 -179 89 -192
97 -210 127 -10 18 -38 42 -62 54 -67 33 -98 67 -98 107 0 39 26 90 51 97 9 3
48 33 85 66 73 65 181 133 226 144 44 11 53 29 32 64 -10 17 -16 33 -13 36 3
3 44 12 92 21 97 18 151 50 182 108 23 43 13 59 -50 75 -76 19 -46 51 47 51
57 0 68 14 68 86 0 85 24 114 97 115 108 1 155 46 85 80 -18 10 -34 20 -35 24
-1 4 29 18 66 30 77 26 155 71 225 128 25 21 59 45 74 53 45 23 17 53 -50 54
-44 0 -20 33 42 57 67 26 106 58 147 122 31 48 36 75 17 87 -39 24 -311 -8
-568 -66 -74 -17 -177 -39 -230 -50 -222 -45 -1073 -328 -1460 -485 -63 -26
-245 -102 -405 -170 -397 -169 -403 -170 -550 -169 -196 2 -724 71 -948 124
-67 15 -207 45 -312 65 -104 20 -309 65 -455 100 -146 35 -323 75 -395 90 -71
15 -201 44 -288 66 -88 21 -209 48 -270 59 -62 12 -159 34 -217 50 -58 17
-172 41 -255 55 -82 14 -180 35 -216 45 -37 11 -160 36 -275 56 -115 19 -254
46 -309 59 -55 13 -201 38 -325 55 -124 17 -261 39 -305 49 -44 11 -112 25
-152 31 -98 18 -98 17 -83 81 25 114 29 158 18 195 -14 52 -126 167 -196 201
-39 19 -57 35 -64 55 -6 16 -23 35 -39 44 -17 8 -54 37 -83 63 -55 50 -64 55
-126 65 -20 3 -52 20 -73 37 -32 27 -37 36 -37 74 0 35 -5 48 -26 64 -15 12
-34 21 -43 21 -9 0 -47 15 -86 34 -38 19 -83 37 -99 41 -26 5 -28 8 -21 41 8
45 -17 86 -83 137 -55 42 -77 46 -92 18z"/>
</g>
</svg>
