<?xml version="1.0" standalone="no"?>
<!DOCTYPE svg PUBLIC "-//W3C//DTD SVG 20010904//EN"
 "http://www.w3.org/TR/2001/REC-SVG-20010904/DTD/svg10.dtd">
<svg version="1.0" xmlns="http://www.w3.org/2000/svg"
 width="1536.000000pt" height="1006.000000pt" viewBox="0 0 1536.000000 1006.000000"
 preserveAspectRatio="xMidYMid meet">
<metadata>
Created by potrace 1.16, written by Peter Selinger 2001-2019
</metadata>
<g transform="translate(0.000000,1006.000000) scale(0.100000,-0.100000)"
fill="#000000" stroke="none">
<path d="M11215 10049 c-16 -5 -63 -38 -103 -73 -51 -45 -108 -82 -185 -120
-103 -50 -123 -65 -248 -183 -128 -121 -142 -131 -256 -186 -98 -48 -137 -61
-214 -73 -251 -39 -271 -44 -388 -99 -124 -57 -182 -75 -327 -99 -246 -43
-411 -133 -654 -361 -99 -92 -153 -135 -204 -160 l-69 -35 -192 0 c-182 0
-202 -2 -355 -35 -88 -19 -182 -44 -207 -57 -26 -13 -89 -61 -141 -108 -141
-127 -148 -131 -249 -141 -110 -11 -164 -24 -261 -61 -223 -86 -365 -88 -521
-8 -31 16 -72 24 -145 30 -55 4 -137 18 -181 30 -116 32 -321 39 -465 15 -98
-17 -120 -17 -239 -5 -98 10 -151 11 -213 3 -476 -61 -509 -69 -704 -168 -117
-60 -181 -86 -230 -95 -146 -27 -245 -75 -285 -137 -14 -21 -39 -68 -57 -105
-43 -95 -68 -106 -195 -89 -109 15 -134 8 -209 -57 -75 -64 -119 -66 -297 -11
-166 52 -246 42 -414 -51 -40 -21 -146 -70 -237 -107 -170 -71 -289 -142 -495
-294 -49 -37 -103 -73 -120 -82 -34 -17 -217 -68 -434 -121 -165 -41 -216 -68
-331 -173 -41 -37 -123 -105 -181 -150 -72 -55 -125 -107 -164 -157 -60 -78
-89 -96 -179 -111 -106 -17 -166 -45 -236 -109 -57 -53 -81 -67 -137 -84 -53
-17 -88 -37 -158 -93 -111 -88 -172 -146 -190 -179 -7 -14 -19 -55 -25 -90 -6
-36 -36 -141 -66 -234 -32 -101 -54 -187 -54 -214 0 -42 4 -48 62 -101 110
-100 148 -143 199 -228 60 -100 92 -139 128 -157 14 -8 91 -32 171 -55 260
-74 339 -111 311 -145 -8 -9 -32 -21 -55 -26 -166 -42 -259 -103 -313 -207
-78 -147 -141 -317 -157 -423 -13 -78 -28 -130 -63 -210 -78 -179 -70 -209 97
-381 81 -83 89 -89 160 -110 41 -12 89 -29 105 -37 41 -20 135 -92 225 -172
41 -36 98 -85 126 -108 30 -26 68 -73 97 -121 54 -90 238 -283 312 -326 25
-15 96 -47 158 -70 124 -48 237 -98 402 -181 86 -43 145 -64 267 -94 134 -33
167 -45 219 -80 101 -69 159 -90 283 -101 61 -6 147 -19 191 -29 44 -11 143
-24 220 -29 189 -13 364 -45 515 -92 84 -27 164 -44 242 -53 108 -12 122 -16
188 -55 39 -23 121 -64 182 -92 62 -27 151 -73 198 -103 62 -39 127 -69 240
-108 109 -37 180 -69 240 -106 132 -82 236 -128 381 -170 74 -21 169 -55 212
-75 43 -20 117 -48 165 -63 109 -33 130 -44 217 -112 158 -124 282 -146 368
-64 38 36 38 101 -1 163 -43 67 -336 340 -399 372 -16 8 -50 19 -77 26 -162
40 -281 174 -201 227 21 14 50 16 202 12 171 -5 182 -6 293 -42 63 -20 153
-46 200 -57 47 -12 154 -41 238 -65 84 -24 204 -51 267 -59 63 -8 163 -31 223
-49 60 -19 126 -38 148 -41 21 -4 73 -15 114 -25 41 -11 121 -24 178 -30 56
-6 123 -17 149 -25 26 -8 106 -21 178 -30 129 -15 318 -48 490 -85 143 -31
414 -71 482 -71 107 0 163 49 163 145 0 45 -4 53 -44 91 -53 52 -142 85 -316
120 -69 14 -199 50 -290 80 -91 30 -207 61 -258 70 -107 18 -190 46 -334 114
-142 66 -214 88 -348 105 -129 17 -182 33 -320 98 -100 47 -134 75 -125 100
15 38 105 50 475 63 96 4 228 13 292 21 64 8 136 14 160 14 73 0 120 19 166
66 38 40 42 49 42 93 0 63 -25 95 -102 131 -72 34 -180 45 -288 30 -135 -19
-224 -22 -285 -11 -33 6 -172 16 -310 21 -184 7 -278 16 -355 31 -76 16 -161
23 -305 28 l-200 6 -3 26 c-2 19 6 34 32 57 44 38 91 52 178 52 109 0 167 17
212 62 l39 39 -7 85 c-6 80 -5 86 18 109 34 34 151 68 433 125 267 53 525 130
793 235 152 59 180 62 202 22 8 -15 14 -106 19 -287 3 -146 12 -298 19 -338
10 -58 11 -95 2 -178 -13 -116 -13 -117 48 -234 21 -41 43 -95 50 -120 20 -75
56 -137 142 -241 71 -86 97 -108 188 -166 148 -93 321 -187 415 -225 44 -17
103 -44 130 -59 85 -47 213 -98 298 -119 57 -14 144 -51 282 -119 110 -55 243
-116 295 -135 52 -19 142 -59 200 -89 61 -31 185 -79 297 -116 183 -60 197
-66 306 -141 62 -43 138 -90 168 -105 76 -39 151 -99 242 -195 93 -96 131
-170 147 -280 15 -103 35 -154 76 -189 64 -57 131 -54 187 8 47 52 54 82 62
250 9 209 10 210 280 245 200 26 304 46 370 68 133 46 209 42 488 -26 130 -32
226 -49 315 -56 70 -5 143 -13 162 -16 94 -17 357 -91 474 -134 160 -59 231
-73 331 -68 70 3 80 6 101 31 44 51 23 125 -52 182 -94 72 -192 105 -774 259
-253 67 -385 158 -285 196 15 6 133 17 263 25 230 16 241 15 369 -5 154 -23
242 -25 334 -6 126 27 207 89 195 150 -14 70 -72 98 -256 122 -150 20 -562 24
-934 9 -214 -8 -289 0 -321 35 -12 14 -14 23 -6 37 11 22 94 68 191 107 74 30
115 65 131 113 15 46 3 88 -33 118 -26 22 -39 25 -102 25 -83 0 -143 -21 -292
-101 -158 -85 -177 -89 -418 -89 -116 0 -231 5 -254 10 -95 22 -257 85 -301
117 -75 54 -176 100 -238 108 -69 8 -101 24 -157 75 -22 21 -106 70 -186 110
-207 103 -301 162 -355 223 -25 28 -85 84 -133 122 -50 41 -120 112 -167 170
-49 61 -94 107 -116 118 -20 9 -74 22 -119 28 -130 16 -266 77 -350 155 -46
44 -90 73 -150 101 -105 48 -174 96 -265 183 -38 36 -87 79 -108 94 -57 42
-69 74 -65 175 3 81 5 90 39 136 49 67 65 101 74 155 11 68 27 91 124 181 76
70 95 94 121 153 36 80 64 113 130 156 25 16 80 67 123 114 100 110 147 142
236 161 38 8 118 30 178 49 175 57 292 86 381 96 71 8 96 16 170 56 48 26 110
62 137 79 28 18 76 44 107 59 36 17 93 60 151 114 218 204 338 297 460 356 64
30 89 52 194 164 l122 128 114 52 c148 67 192 69 298 15 53 -28 82 -50 104
-81 l30 -44 -3 -132 c-2 -130 -2 -133 23 -156 39 -36 121 -40 177 -7 25 14 53
42 66 65 20 37 22 52 22 216 0 176 0 177 25 200 14 13 39 26 56 30 55 11 338
6 534 -9 246 -19 280 -26 810 -170 171 -46 263 -44 321 7 112 98 -57 248 -336
298 -149 26 -323 87 -405 140 -64 42 -125 69 -156 70 -9 0 -26 8 -38 18 -20
15 -20 19 -8 36 17 23 98 35 247 36 106 0 637 51 781 75 52 8 153 15 226 15
157 0 350 23 410 50 45 20 83 69 83 106 0 32 -34 70 -82 90 -39 16 -81 18
-432 19 l-388 0 -24 30 c-60 74 -72 83 -128 101 -86 27 -93 44 -60 135 14 41
49 144 76 229 44 140 49 167 55 280 8 163 -10 340 -42 425 -34 92 -94 190
-184 303 -98 122 -142 167 -316 323 -244 218 -276 240 -448 308 -40 16 -103
45 -139 65 -36 20 -96 47 -135 60 -93 31 -120 46 -243 131 -58 40 -132 86
-166 103 -157 79 -280 170 -318 234 -13 24 -39 95 -56 158 -33 126 -89 249
-145 323 -19 25 -111 108 -203 182 l-167 135 -144 46 c-138 44 -333 85 -396
83 -16 0 -43 -5 -60 -10z"/>
</g>
</svg>
