<?xml version="1.0" standalone="no"?>
<!DOCTYPE svg PUBLIC "-//W3C//DTD SVG 20010904//EN"
 "http://www.w3.org/TR/2001/REC-SVG-20010904/DTD/svg10.dtd">
<svg version="1.0" xmlns="http://www.w3.org/2000/svg"
 width="1498.000000pt" height="1536.000000pt" viewBox="0 0 1498.000000 1536.000000"
 preserveAspectRatio="xMidYMid meet">
<metadata>
Created by potrace 1.16, written by Peter Selinger 2001-2019
</metadata>
<g transform="translate(0.000000,1536.000000) scale(0.100000,-0.100000)"
fill="#000000" stroke="none">
<path d="M2977 15340 c-28 -23 -43 -75 -32 -111 4 -12 112 -130 241 -261 128
-131 279 -293 336 -360 134 -160 317 -365 405 -454 38 -39 113 -131 166 -205
52 -74 159 -213 236 -309 77 -96 168 -222 203 -280 124 -211 312 -474 487
-685 105 -126 122 -152 132 -197 14 -60 66 -134 157 -225 84 -83 304 -263 353
-289 l31 -16 -7 -71 c-10 -104 -30 -192 -80 -357 -24 -80 -49 -167 -56 -195
-15 -63 -41 -116 -90 -180 -79 -105 -124 -244 -110 -338 13 -77 -3 -138 -123
-484 l-113 -328 -74 3 c-41 2 -137 10 -214 18 -196 20 -393 19 -446 -3 -38
-15 -49 -15 -148 1 -194 30 -323 38 -681 38 -341 1 -357 0 -405 -20 -41 -18
-83 -23 -235 -32 -186 -10 -397 -35 -545 -65 -161 -33 -354 -77 -505 -115 -85
-22 -229 -55 -320 -75 -220 -46 -332 -76 -472 -124 -64 -23 -125 -41 -136 -41
-11 0 -98 -27 -194 -61 -95 -33 -272 -94 -393 -136 -241 -83 -306 -111 -329
-145 -24 -34 -20 -56 17 -93 l34 -34 69 16 c68 15 374 116 567 187 108 40 148
44 168 20 12 -15 29 -16 129 -11 179 10 237 25 638 163 134 46 254 84 268 84
14 0 39 -7 56 -16 37 -19 67 -18 343 20 179 25 612 73 883 98 93 9 170 9 325
0 309 -18 475 -54 632 -137 62 -32 98 -45 128 -45 23 0 89 -7 147 -15 58 -9
191 -20 295 -25 256 -13 285 -17 285 -40 0 -11 -58 -106 -128 -212 -199 -299
-266 -420 -387 -693 -117 -265 -151 -406 -190 -793 -32 -311 -50 -409 -131
-690 -36 -125 -105 -389 -154 -587 -91 -370 -153 -595 -290 -1055 -103 -346
-129 -447 -190 -735 -88 -415 -88 -414 -181 -536 -31 -41 -107 -150 -168 -242
-61 -92 -152 -215 -202 -274 -111 -133 -189 -246 -264 -383 -85 -155 -126
-207 -311 -401 -194 -201 -296 -315 -313 -346 -19 -37 -13 -73 18 -104 64 -64
101 -39 440 300 205 204 220 221 268 313 89 168 295 463 462 662 l66 78 7 -43
c3 -24 7 -120 7 -214 2 -418 54 -906 131 -1221 32 -135 155 -560 193 -669 14
-38 59 -148 101 -244 205 -466 389 -763 606 -981 153 -154 333 -261 520 -312
110 -29 312 -31 440 -4 295 62 614 219 880 433 209 167 383 358 626 683 214
287 533 680 608 749 l26 24 26 -24 c71 -65 392 -460 594 -729 393 -525 673
-783 1055 -970 152 -75 287 -125 435 -160 136 -33 348 -34 470 -1 323 86 617
342 843 734 139 240 321 621 384 802 38 111 161 535 193 669 76 314 129 806
131 1221 0 94 4 190 7 214 l7 43 66 -78 c164 -196 375 -497 461 -661 49 -93
63 -109 270 -316 341 -339 375 -362 439 -298 31 31 37 67 18 104 -16 31 -113
138 -306 339 -198 207 -219 234 -318 408 -97 169 -150 247 -265 383 -49 59
-140 183 -202 275 -61 92 -137 201 -168 242 -92 121 -92 120 -180 535 -61 284
-102 439 -220 835 -115 386 -172 596 -269 990 -44 179 -109 427 -145 552 -82
287 -99 375 -130 684 -40 391 -74 533 -191 799 -121 273 -188 394 -387 693
-70 106 -128 201 -128 212 0 23 28 27 290 40 107 6 240 17 295 25 55 8 119 15
142 15 30 0 66 13 128 45 157 83 323 119 632 137 155 9 232 9 325 0 271 -25
704 -73 883 -98 276 -38 306 -39 343 -20 17 9 42 16 56 16 14 0 134 -38 268
-84 401 -138 459 -153 638 -163 100 -5 117 -4 129 11 22 26 62 19 218 -38 245
-89 494 -168 548 -173 45 -5 55 -3 74 18 49 53 33 102 -47 143 -26 13 -146 58
-267 99 -121 42 -298 103 -393 136 -96 34 -183 61 -194 61 -11 0 -72 18 -136
40 -155 54 -262 83 -467 125 -93 19 -258 57 -365 85 -432 109 -698 154 -1010
171 -152 8 -194 13 -235 31 -48 20 -64 21 -405 20 -360 0 -504 -9 -686 -39
-94 -15 -103 -15 -143 0 -53 22 -249 23 -446 3 -77 -8 -173 -16 -214 -18 l-74
-3 -109 315 c-125 359 -140 416 -129 496 5 31 4 79 -1 107 -11 63 -64 176
-111 237 -42 56 -72 114 -82 160 -4 19 -28 100 -52 180 -52 170 -79 288 -88
385 l-7 71 48 30 c75 46 245 187 334 274 92 92 145 168 159 228 10 45 26 70
131 197 182 219 366 479 503 710 27 44 93 136 149 205 112 140 249 319 323
425 27 39 80 100 116 137 82 82 269 291 407 456 57 67 208 229 336 360 129
131 237 249 241 261 20 63 -27 131 -90 131 -39 0 -84 -31 -230 -161 -211 -186
-428 -427 -689 -763 -81 -105 -102 -126 -140 -140 -63 -24 -193 -164 -364
-391 -75 -99 -163 -205 -195 -235 -167 -154 -200 -195 -569 -701 -138 -188
-185 -240 -270 -295 -38 -24 -111 -84 -161 -133 l-92 -89 -76 72 c-43 40 -111
94 -152 120 -69 42 -77 51 -92 97 -20 60 -62 92 -156 117 -35 10 -64 22 -64
27 0 6 74 13 183 17 202 8 259 19 336 68 164 105 242 268 253 530 5 107 2 138
-16 210 -74 293 -410 726 -631 811 -42 17 -85 23 -185 27 l-131 4 -27 49 c-18
33 -38 53 -61 63 -19 8 -59 37 -88 65 -29 27 -92 86 -139 130 l-86 81 -79 -11
c-117 -15 -172 -45 -267 -141 -65 -66 -102 -93 -174 -131 l-93 -48 -92 48
c-73 37 -111 66 -176 131 -97 97 -149 125 -265 142 l-79 12 -86 -82 c-48 -45
-110 -103 -139 -130 -28 -27 -68 -56 -87 -64 -25 -10 -44 -30 -63 -64 l-27
-50 -131 -4 c-142 -6 -197 -21 -282 -79 -211 -146 -482 -532 -538 -766 -35
-145 -6 -403 60 -539 30 -62 113 -151 181 -194 77 -49 134 -60 336 -68 114 -4
182 -11 180 -17 -1 -5 -33 -19 -71 -31 -94 -29 -126 -54 -146 -114 -15 -45
-23 -54 -92 -96 -41 -26 -109 -80 -152 -120 l-76 -72 -92 89 c-50 49 -123 109
-161 134 -93 59 -133 107 -363 422 -255 349 -348 464 -424 524 -65 51 -118
112 -250 289 -169 226 -293 357 -367 389 -34 14 -58 35 -89 78 -224 305 -532
647 -769 854 -152 133 -197 153 -253 109z"/>
</g>
</svg>
